<svg version="1.1" id="Layer_1" xmlns="http://www.w3.org/2000/svg" xmlns:xlink="http://www.w3.org/1999/xlink" x="0px" y="0px"
	 width="100%" viewBox="0 0 1200 1200" enable-background="new 0 0 1200 1200" xml:space="preserve">
<path fill="#CFEFF5" opacity="1.000000" stroke="none" 
	d="
M827.000000,1201.000000 
	C551.333313,1201.000000 276.166656,1201.000000 1.000000,1201.000000 
	C1.000000,801.000000 1.000000,401.000000 1.000000,1.000000 
	C401.000000,1.000000 801.000000,1.000000 1201.000000,1.000000 
	C1201.000000,401.000000 1201.000000,801.000000 1201.000000,1201.000000 
	C1076.500000,1201.000000 952.000000,1201.000000 827.000000,1201.000000 
M592.825500,281.567322 
	C591.884277,282.709564 590.943054,283.851807 589.860168,284.319946 
	C581.351624,271.867737 572.843079,259.415527 564.218018,246.792862 
	C562.789124,247.555328 561.768433,248.056229 560.789429,248.628586 
	C517.317444,274.044891 474.002686,299.737396 430.241119,324.644806 
	C422.201080,329.220856 418.394714,333.868134 419.730652,343.067413 
	C420.347076,347.311951 420.177063,351.219696 423.294861,354.969757 
	C446.053314,382.343323 468.533722,409.947906 491.130432,437.456146 
	C497.095093,444.717224 503.159302,451.896515 509.424835,459.409576 
	C529.808167,415.905762 549.904785,373.068878 569.947388,330.206757 
	C576.687805,315.791870 583.290894,301.312744 590.663818,286.608368 
	C592.094360,287.834778 593.524902,289.061188 594.921570,290.258545 
	C595.546570,289.141205 596.433350,287.555939 597.598572,285.472870 
	C616.358887,312.814636 634.906494,339.846344 653.807312,367.392883 
	C669.247131,339.054443 684.402954,311.237244 699.847229,282.890625 
	C673.268127,267.368469 646.932617,251.988586 620.214661,236.385330 
	C612.597900,252.590515 605.166260,268.401855 597.481567,284.751556 
	C596.041992,283.142365 595.068176,282.053802 593.880188,280.211639 
	C594.148499,279.312042 594.308899,278.362152 594.701233,277.520325 
	C601.479858,262.975769 608.287048,248.444504 615.263123,233.536041 
	C611.351257,231.273529 607.783386,228.835693 603.894226,227.130753 
	C602.151001,226.366531 599.359314,226.335098 597.736084,227.228989 
	C588.201050,232.479706 578.870483,238.101761 569.246826,243.729752 
	C570.172058,245.247345 570.801636,246.389740 571.533142,247.462616 
	C578.166626,257.192230 584.849304,266.888641 591.425659,276.656586 
	C592.279907,277.925415 592.613220,279.544922 592.825500,281.567322 
M750.020264,517.188599 
	C750.998962,515.726440 751.977661,514.264282 753.224182,512.401978 
	C761.013672,523.701477 768.530640,534.605591 775.956604,545.377686 
	C780.939636,544.173645 782.300110,541.426514 782.245361,536.649170 
	C781.972351,512.829651 782.125366,489.005341 782.109375,465.182739 
	C782.108337,463.658936 781.946106,462.135284 781.782166,459.271545 
	C771.810486,477.500580 762.540344,494.447052 753.094177,511.715454 
	C751.583374,509.760071 750.573914,508.453491 749.439697,506.985535 
	C748.398193,508.651001 747.414368,510.224060 746.210266,512.149414 
	C715.521851,467.421417 685.111389,423.098541 654.365479,378.286743 
	C626.024231,430.293823 598.044312,481.637848 569.805420,533.457153 
	C568.088501,531.082031 566.952698,529.510925 566.532043,527.589539 
	C594.481812,476.311554 622.431580,425.033600 650.584717,373.382446 
	C652.131165,375.201904 653.269775,376.541565 654.451660,377.932098 
	C655.484131,376.244629 656.432068,374.695404 657.538818,372.886505 
	C688.147888,417.490387 718.606079,461.874420 749.185852,506.435638 
	C749.786682,505.639008 750.125488,505.288757 750.351074,504.876526 
	C760.562805,486.219025 770.811951,467.581604 780.890686,448.852478 
	C781.849976,447.069794 782.066589,444.709961 782.070618,442.617004 
	C782.139221,406.795868 782.067566,370.974335 782.205750,335.153625 
	C782.218750,331.804260 781.036438,330.127075 778.250610,328.567780 
	C767.954529,322.804810 757.784241,316.815735 747.594055,310.864868 
	C733.418579,302.586761 719.267822,294.266449 704.758667,285.760315 
	C688.951111,314.760681 673.338501,343.403442 657.560242,372.350098 
	C656.414062,371.000732 655.566467,370.002838 654.585693,368.463593 
	C654.105164,368.642731 653.624695,368.821899 652.702942,369.464783 
	C652.020020,370.451233 651.337158,371.437683 650.525635,372.609863 
	C631.807617,345.352753 613.371704,318.506470 594.715088,291.338806 
	C593.962646,292.526093 593.647400,292.921967 593.438538,293.367737 
	C576.188049,330.179291 558.914307,366.979980 541.715637,403.815765 
	C532.389954,423.789154 523.193237,443.822723 513.274292,463.758118 
	C512.063416,462.428528 510.852448,461.098938 509.496857,459.610535 
	C508.398773,461.569611 507.511200,463.153076 506.422516,465.095337 
	C477.782166,430.180756 449.272858,395.425903 420.627960,360.505798 
	C420.204529,361.243927 419.926910,361.501923 419.926788,361.760010 
	C419.898865,421.034149 419.879578,480.308319 419.955627,539.582336 
	C419.957214,540.813599 420.734467,542.600891 421.714142,543.189270 
	C434.199158,550.687805 446.787537,558.014282 459.703003,565.591858 
	C475.374695,532.143188 490.829193,499.158081 506.886475,464.886383 
	C508.245422,467.166077 509.162811,468.705139 510.051636,470.196198 
	C511.681213,468.051971 512.840454,466.526642 514.224854,465.635376 
	C523.801819,477.304657 533.331604,489.013062 542.970825,500.630707 
	C550.571350,509.791290 558.306763,518.840027 566.001221,528.778564 
	C565.066833,530.266418 564.132507,531.754272 562.847717,533.800110 
	C545.351746,512.499878 528.201599,491.620636 510.618988,470.214844 
	C495.115692,503.359894 479.924622,535.837341 464.655334,568.482117 
	C485.117889,580.403076 504.994293,591.982483 525.106201,603.699158 
	C537.851135,580.327881 550.289001,557.519714 562.772583,534.627686 
	C564.255859,535.995056 565.336792,536.991577 566.598450,538.764038 
	C561.215271,548.860596 555.871704,558.978516 550.438782,569.048218 
	C543.697998,581.541931 536.883179,593.995667 530.044434,606.569397 
	C549.404907,617.894409 568.281006,629.043091 587.263794,640.007202 
	C603.143921,649.179199 599.119690,648.941650 614.302307,640.226807 
	C622.309631,635.630615 630.233521,630.889099 638.358276,626.117432 
	C637.194702,624.560974 636.446411,623.472656 635.611206,622.455811 
	C616.822144,599.580383 598.001953,576.730652 579.243286,553.830383 
	C574.976257,548.621277 570.916382,543.242493 567.406494,537.728210 
	C568.219727,536.530457 569.032898,535.332642 570.107788,533.749390 
	C594.724976,563.754700 619.058838,593.414673 643.486084,623.188477 
	C662.963745,611.837463 682.252686,600.715149 701.376587,589.316101 
	C704.057068,587.718384 706.554932,585.112671 708.074768,582.382141 
	C718.739014,563.221985 729.114624,543.901306 739.606995,524.645264 
	C741.757080,520.699341 744.010376,516.809692 746.402588,512.562866 
	C747.962097,514.797852 749.078918,516.398376 749.481750,518.374634 
	C738.367554,538.810730 727.253357,559.246765 716.139099,579.682800 
	C716.384827,579.913147 716.630493,580.143433 716.876221,580.373718 
	C734.942017,569.832764 753.007812,559.291809 771.336304,548.597595 
	C763.979980,538.077148 756.959290,528.036682 750.020264,517.188599 
M207.214554,808.387756 
	C208.688568,812.272095 210.014038,816.223511 211.721619,820.002258 
	C212.277695,821.232788 213.792587,822.809387 214.934952,822.864746 
	C220.865555,823.151855 226.817490,822.998413 232.795502,822.998413 
	C232.795502,796.396240 232.795502,770.345459 232.795502,744.316162 
	C227.729614,744.316162 222.995148,744.316162 218.493011,744.316162 
	C218.493011,763.248840 218.493011,781.860413 218.493011,800.654541 
	C217.999207,799.615845 217.452530,798.643738 217.059708,797.613037 
	C210.730103,781.005066 204.457993,764.374878 198.039276,747.801514 
	C197.477631,746.351318 196.044952,744.246704 194.909805,744.176514 
	C189.001404,743.810974 183.058319,744.006165 177.252609,744.006165 
	C177.252609,770.700928 177.252609,796.722046 177.252609,822.655762 
	C182.334183,822.655762 187.066025,822.655762 191.501495,822.655762 
	C191.501495,804.336121 191.501495,786.364075 191.501495,767.128174 
	C196.929062,781.376404 201.934906,794.517456 207.214554,808.387756 
M688.142761,744.064880 
	C684.354370,743.728455 680.542114,742.940674 676.781982,743.139282 
	C664.967102,743.763367 658.430969,750.827454 659.129150,762.638794 
	C659.413208,767.444031 661.192688,772.160889 662.223022,776.620667 
	C658.813843,779.361938 654.960571,781.808350 651.930786,785.029358 
	C645.190552,792.194885 643.637146,800.759827 646.865051,810.028564 
	C649.834167,818.553955 656.616760,822.245544 665.019043,823.589722 
	C675.041138,825.193054 684.148621,822.841736 691.003662,817.862427 
	C697.837036,820.019226 703.506042,822.244934 709.382324,823.500671 
	C712.947693,824.262573 716.504517,823.282227 715.790894,817.990540 
	C715.494629,815.793823 715.741638,813.523804 715.741638,810.843323 
	C709.432129,812.576172 704.563660,811.541443 700.979370,807.787476 
	C704.063660,798.877258 706.957520,790.517273 710.023682,781.659424 
	C705.002380,781.000244 701.278809,780.511475 697.803833,780.055298 
	C695.630005,786.495056 693.600342,792.507568 691.092896,799.935486 
	C686.276611,793.001892 682.375854,787.386230 678.535095,781.856995 
	C683.314636,778.921509 687.522217,776.568420 691.486755,773.859741 
	C704.157837,765.202698 702.097107,749.183472 688.142761,744.064880 
M363.344055,760.624756 
	C359.465820,763.683960 355.587555,766.743103 351.664856,769.837341 
	C351.664856,758.908936 351.664856,747.643860 351.664856,736.299927 
	C346.115997,736.299927 340.887726,736.299927 335.618408,736.299927 
	C335.618408,765.332336 335.618408,794.050415 335.618408,822.628906 
	C341.232025,822.628906 346.470032,822.628906 351.916382,822.628906 
	C351.916382,811.429382 351.566986,800.595459 352.084503,789.803223 
	C352.298279,785.345703 353.784241,780.691467 355.753632,776.643311 
	C358.047821,771.927429 362.691467,770.918762 367.756531,771.804749 
	C372.618439,772.655151 374.121674,776.241150 374.752502,780.369324 
	C375.151978,782.983704 375.100739,785.679443 375.108582,788.339111 
	C375.142273,799.758850 375.122955,811.178833 375.122955,822.730591 
	C380.878937,822.730591 386.117615,822.730591 390.966034,822.730591 
	C390.966034,806.387390 391.550476,790.301086 390.744659,774.284790 
	C390.269012,764.830566 382.953156,759.246521 373.396210,759.075195 
	C370.292267,759.019531 367.172394,759.852600 363.344055,760.624756 
M856.661804,820.262329 
	C864.702026,815.499939 868.788818,808.026245 871.579041,798.944702 
	C865.966797,797.936768 860.814758,797.011475 855.779541,796.107239 
	C854.706787,798.515076 853.983704,800.558594 852.932129,802.416138 
	C850.245667,807.162231 846.634460,810.530151 840.652710,810.256836 
	C834.604248,809.980347 830.564514,806.709534 828.530701,801.385803 
	C827.012817,797.412292 825.593811,793.016052 825.751099,788.869568 
	C826.055359,780.849915 826.859436,772.721741 828.697937,764.931641 
	C829.966919,759.554199 834.795837,756.865723 840.573120,756.746460 
	C846.376404,756.626587 849.724731,760.007385 852.052063,764.814880 
	C852.834106,766.430237 853.531616,768.086426 854.375366,769.963440 
	C859.622925,768.635193 864.704102,767.349121 870.105530,765.981934 
	C869.258240,763.788147 868.709229,762.072876 867.952698,760.454651 
	C861.880249,747.464783 851.846191,741.892334 836.801086,743.100830 
	C822.998047,744.209717 813.977295,751.447815 810.058716,764.703674 
	C807.027039,774.959045 807.014343,785.421753 808.778137,795.835815 
	C812.793213,819.543518 834.153625,830.680298 856.661804,820.262329 
M926.482666,823.152100 
	C940.685059,819.518433 947.396912,811.448547 948.535034,794.473572 
	C949.698975,777.113464 944.172546,762.263977 924.525696,759.298523 
	C907.758484,756.767822 893.833679,763.709045 889.412109,777.604187 
	C888.315002,781.051758 887.616638,784.737366 887.440979,788.347839 
	C886.674377,804.109009 891.314575,817.896667 906.522461,822.155457 
	C912.537476,823.839905 919.252380,823.024902 926.482666,823.152100 
M432.340027,760.707642 
	C417.281647,766.343689 410.511017,779.552307 413.199799,798.047607 
	C415.437836,813.442017 424.861755,822.637573 439.679749,823.885864 
	C455.466705,825.215820 468.063385,818.746826 471.671204,807.209351 
	C465.061188,807.603088 457.685181,802.895630 452.555634,810.943542 
	C452.185364,811.524353 451.105743,811.681580 450.332153,811.972473 
	C440.270020,815.756226 429.424255,809.046936 430.878571,794.244141 
	C444.828430,794.244141 458.860870,794.244141 473.069275,794.244141 
	C473.144806,784.560547 471.844299,775.865479 465.945618,768.719360 
	C457.130585,758.040039 445.452820,757.622803 432.340027,760.707642 
M296.270050,808.521484 
	C291.586304,813.008301 285.327057,814.239319 279.811859,811.758484 
	C274.314209,809.285400 271.199707,802.870789 271.715942,794.356750 
	C285.715729,794.356750 299.771637,794.356750 313.939301,794.356750 
	C313.939301,791.730408 314.133667,789.727234 313.907349,787.772766 
	C312.558289,776.121338 308.717621,765.648743 296.783325,761.219421 
	C284.814392,756.777283 272.930267,757.900391 263.039215,766.617798 
	C252.872971,775.577820 250.743210,795.671997 257.758057,809.448853 
	C263.447052,820.621765 276.610474,826.135559 291.179230,823.562927 
	C301.072205,821.815979 308.843170,817.354614 313.116241,807.329712 
	C308.490143,806.891846 304.394318,806.353760 300.284821,806.211914 
	C299.133606,806.172180 297.942169,807.298950 296.270050,808.521484 
M523.213989,778.761963 
	C530.486572,770.542908 540.072388,773.128784 549.194824,773.601074 
	C549.194824,768.928101 549.194824,764.642822 549.194824,760.406799 
	C532.610352,756.352905 524.523499,759.282104 516.329407,772.277344 
	C515.415588,768.237000 514.520996,764.281982 513.607605,760.243530 
	C508.190369,760.243530 503.101532,760.243530 499.399811,760.243530 
	C499.977112,781.165344 500.548553,801.874023 501.123077,822.694946 
	C506.279755,822.694946 511.498199,822.694946 517.012817,822.694946 
	C517.012817,814.603638 516.973755,806.815918 517.024292,799.028809 
	C517.070374,791.936096 518.072205,785.096252 523.213989,778.761963 
M169.525162,926.499756 
	C169.525162,931.908997 169.525162,937.318176 169.525162,942.933716 
	C176.169464,942.933716 182.175537,943.310913 188.115067,942.843140 
	C196.494461,942.183228 203.028641,938.066284 206.370193,930.164856 
	C210.053070,921.456299 210.096085,912.371582 207.501678,903.337585 
	C205.223801,895.405823 199.795609,890.379883 191.755753,889.145020 
	C184.619705,888.049133 177.313904,888.058472 169.668182,887.552490 
	C169.668182,900.802856 169.668182,913.151978 169.525162,926.499756 
M725.522644,914.282043 
	C726.027039,912.025879 726.080139,909.511780 727.176453,907.593933 
	C728.076965,906.018677 730.138733,904.438904 731.838501,904.252319 
	C732.781372,904.148926 734.568359,906.749268 735.028320,908.395447 
	C735.729553,910.905212 735.782654,913.642578 735.807800,916.286194 
	C735.891357,925.053772 735.839355,933.822693 735.839355,942.649292 
	C738.454468,942.649292 740.493286,942.649292 742.878296,942.649292 
	C742.878296,933.329468 742.711487,924.363281 742.970581,915.409485 
	C743.058899,912.358093 743.924500,909.223938 745.033691,906.359497 
	C745.473816,905.222595 747.603455,904.009583 748.847595,904.121765 
	C750.068604,904.231812 751.829590,905.807190 752.141296,907.044800 
	C752.859375,909.896423 753.048401,912.930786 753.084045,915.895508 
	C753.191345,924.824402 753.122742,933.755493 753.122742,942.786438 
	C755.709045,942.786438 757.638977,942.786438 759.766052,942.786438 
	C759.766052,930.486511 759.784790,918.409119 759.730225,906.331970 
	C759.725891,905.372375 759.284302,904.387817 758.926331,903.461060 
	C756.551453,897.311768 748.641785,895.891113 744.274353,900.867065 
	C743.225098,902.062561 742.452332,903.500671 741.497192,904.908508 
	C737.003296,895.295105 731.403748,896.045837 724.974487,903.125671 
	C724.389404,901.528137 723.917725,900.240173 723.433289,898.917542 
	C721.499268,899.031982 719.917236,899.125610 718.511841,899.208801 
	C718.511841,914.019470 718.511841,928.396606 718.511841,942.739807 
	C720.835693,942.739807 722.767883,942.739807 725.315918,942.739807 
	C725.315918,933.364929 725.315918,924.254700 725.522644,914.282043 
M445.875153,928.484009 
	C444.461243,928.842041 443.047302,929.200012 441.487549,929.594971 
	C442.274261,935.428955 445.471588,939.508179 450.406372,941.576965 
	C458.861298,945.121277 467.723175,945.367065 476.040405,941.272644 
	C478.898376,939.865601 481.580597,936.850281 482.954315,933.918945 
	C486.751190,925.816956 483.319977,917.562073 474.918243,914.282837 
	C469.064209,911.997925 462.850006,910.653076 456.877991,908.646484 
	C453.396729,907.476746 451.551025,904.886230 451.747192,901.021301 
	C451.940948,897.204285 453.890717,894.969604 457.493469,893.820374 
	C465.709961,891.199402 471.596039,893.719360 475.775818,901.984802 
	C478.058807,901.507935 480.387177,901.021545 482.715546,900.535217 
	C483.039276,899.999512 483.362976,899.463867 483.686707,898.928162 
	C480.690765,895.643127 478.282623,891.200867 474.574738,889.317566 
	C467.192352,885.568054 459.031647,885.848389 451.406952,889.354004 
	C446.269806,891.715881 443.894806,896.117493 443.967529,901.865540 
	C444.040375,907.619690 446.554382,911.792236 451.788055,914.077209 
	C454.666290,915.333862 457.770111,916.070984 460.765015,917.064026 
	C464.539764,918.315735 468.533508,919.151855 472.024261,920.957153 
	C477.157745,923.611938 477.889801,930.547180 473.898804,934.497986 
	C467.816864,940.518616 454.074677,938.428345 449.856018,930.962402 
	C449.223419,929.842834 447.722870,929.213684 445.875153,928.484009 
M259.008911,927.406860 
	C259.005463,922.250061 259.141663,917.088562 258.965668,911.937622 
	C258.704041,904.279236 254.469788,899.569031 246.990784,898.266602 
	C237.498489,896.613525 229.054535,899.900940 226.311081,906.396423 
	C225.838364,907.515625 225.722580,908.785583 225.348709,910.384460 
	C228.100235,910.594055 230.374176,910.767334 232.579147,910.935364 
	C234.888565,903.327576 239.456467,903.075012 246.155762,904.286438 
	C250.569000,905.084534 252.073853,909.517700 250.581573,916.120178 
	C248.068344,916.120178 245.409271,915.918213 242.793655,916.169189 
	C239.185547,916.515503 235.475479,916.770813 232.049667,917.837646 
	C225.480103,919.883423 222.121597,926.205261 223.314560,933.224609 
	C224.540817,940.439941 229.024628,943.995667 236.531952,944.035889 
	C243.135391,944.071289 247.851715,940.928894 251.412796,935.367188 
	C253.569839,942.916077 257.144257,945.456360 263.134491,943.752502 
	C264.151581,943.463196 264.876282,942.145813 265.736084,941.303406 
	C264.905975,940.530701 264.028992,939.801880 263.256042,938.975647 
	C261.844391,937.466614 259.995789,936.102844 259.261993,934.299011 
	C258.560516,932.574646 259.045471,930.367676 259.008911,927.406860 
M368.047760,906.844238 
	C364.334473,899.536682 358.098755,896.814453 348.298401,898.222412 
	C340.723083,899.310791 336.881409,902.861816 335.603577,910.360779 
	C337.894226,910.575745 340.151642,910.787659 342.304626,910.989746 
	C345.537170,904.295471 350.233276,902.130005 356.423798,904.264099 
	C360.460297,905.655640 361.880432,909.229309 360.797974,916.115112 
	C358.270691,916.115112 355.619781,915.901855 353.017303,916.165833 
	C349.246552,916.548279 345.363892,916.815674 341.792084,917.956116 
	C335.280518,920.035217 332.043793,926.480896 333.372894,933.514893 
	C334.693146,940.502014 339.060577,943.953369 346.341034,944.029907 
	C352.995819,944.099854 357.907257,941.065125 361.544098,935.059143 
	C363.388336,942.857605 367.602936,945.733765 373.461365,943.713501 
	C374.372284,943.399353 375.320160,942.345642 375.624420,941.426453 
	C375.816833,940.845154 374.862793,939.199219 374.396179,939.188416 
	C368.060791,939.041687 369.187073,934.347168 369.027069,930.524109 
	C368.707916,922.901123 368.492554,915.273865 368.047760,906.844238 
M693.677734,942.391418 
	C697.812927,941.029663 700.722839,938.428894 702.835571,932.982971 
	C699.837158,933.162720 696.743530,932.427673 695.695190,933.570007 
	C691.101990,938.574219 685.588318,939.603577 679.834412,937.369568 
	C673.797668,935.025879 672.585693,929.298096 672.340942,922.706970 
	C682.905457,922.706970 693.287659,922.706970 704.204163,922.706970 
	C703.701233,918.552734 703.562744,915.058350 702.814087,911.699951 
	C701.092773,903.977966 695.370789,899.041138 687.536133,898.099426 
	C677.979370,896.950745 670.462585,900.345032 667.077454,907.914001 
	C663.063477,916.888977 663.048096,926.238281 667.677185,934.814941 
	C669.532593,938.252686 673.626343,941.642639 677.343994,942.627197 
	C682.214966,943.917175 687.722168,942.804932 693.677734,942.391418 
M1002.010742,919.203491 
	C1002.613953,913.446960 1002.624023,907.546143 1003.979919,901.972778 
	C1005.465576,895.866394 1010.215759,893.224304 1016.460632,893.601868 
	C1022.356140,893.958313 1025.598755,897.716370 1028.014282,903.048767 
	C1030.316650,902.103027 1032.481445,901.213745 1034.666504,900.316162 
	C1029.960938,890.167480 1023.826416,886.445374 1013.464661,887.023438 
	C1004.414429,887.528320 998.011658,892.389954 995.455383,901.644409 
	C992.843567,911.099487 992.687561,920.729797 995.975647,930.125305 
	C999.270386,939.539612 1006.677063,944.367371 1016.727234,944.002197 
	C1025.685059,943.676697 1032.627930,937.981384 1035.387085,928.530151 
	C1033.466064,927.743713 1031.525024,926.949158 1029.454590,926.101562 
	C1028.572510,927.708008 1027.876953,929.008545 1027.150513,930.291687 
	C1024.247559,935.419495 1019.958313,938.035889 1013.972839,937.364136 
	C1008.010620,936.694946 1005.019104,932.735962 1003.491455,927.414490 
	C1002.808716,925.036133 1002.499756,922.550476 1002.010742,919.203491 
M529.165222,907.649109 
	C525.702820,916.341309 522.240479,925.033569 518.532532,934.342224 
	C514.162292,923.982483 510.066559,914.355835 506.040100,904.700195 
	C503.340942,898.227478 503.384979,898.209106 496.304077,899.600891 
	C496.270294,899.764038 496.158600,899.962097 496.213745,900.085449 
	C501.775726,912.522583 507.192474,925.028687 513.019104,937.340820 
	C514.795044,941.093323 514.472107,944.132874 512.685974,947.589661 
	C510.001465,952.785278 505.599518,954.660645 499.792847,954.224426 
	C499.991852,956.409302 500.135986,957.991882 500.271027,959.474915 
	C509.804199,960.883301 514.745911,958.346069 519.172119,948.963379 
	C523.560486,939.660767 527.363953,930.081848 531.407654,920.617188 
	C534.395386,913.623901 537.357056,906.619446 540.351074,899.571106 
	C535.264343,898.084961 531.736572,898.719055 530.652344,904.193909 
	C530.462585,905.152161 529.905457,906.037659 529.165222,907.649109 
M802.988525,899.190369 
	C796.722351,897.453430 790.482361,897.273560 784.434387,899.944153 
	C779.653320,902.055298 777.542664,906.093445 777.572327,911.128479 
	C777.599731,915.757446 780.146240,918.953186 784.363037,920.667297 
	C786.812988,921.663208 789.410461,922.296509 791.942200,923.090820 
	C795.265015,924.133423 798.727844,924.866272 801.876831,926.292419 
	C805.858093,928.095276 806.631714,932.898621 803.772705,935.817688 
	C800.402954,939.258240 787.271606,939.738037 784.688721,935.785400 
	C782.140015,931.884888 779.723083,931.753662 774.974731,934.160767 
	C777.678528,936.898132 779.695374,940.086548 782.589600,941.636597 
	C789.026062,945.083618 796.109741,944.782471 802.974060,942.754089 
	C809.166565,940.924255 812.389771,936.597778 812.529846,930.813293 
	C812.653564,925.704224 809.741760,921.791687 803.652039,919.559082 
	C799.773254,918.137085 795.703308,917.244202 791.755676,915.998108 
	C790.036987,915.455750 788.224304,914.885315 786.781128,913.865295 
	C783.948730,911.863464 783.904785,907.953979 786.439026,905.675842 
	C789.760010,902.690308 800.725525,902.596558 803.191772,906.181274 
	C805.692871,909.816650 808.069946,908.958618 812.815857,907.203735 
	C809.176880,904.141357 806.439270,901.837463 802.988525,899.190369 
M572.987488,916.649170 
	C570.661194,915.799072 568.138672,915.275146 566.055359,914.021362 
	C563.029297,912.200378 562.808411,908.289246 565.214661,905.876404 
	C568.454651,902.627502 579.772583,902.535767 582.335510,906.364258 
	C584.750610,909.971985 587.104553,908.706970 591.042847,907.869995 
	C589.157593,905.359558 588.012939,903.168823 586.279907,901.649170 
	C580.435181,896.524414 566.338989,896.747498 560.483765,901.836304 
	C554.421875,907.104797 555.423096,916.577881 562.575745,920.195618 
	C565.070251,921.457397 567.864319,922.143005 570.547485,923.011475 
	C574.024597,924.136963 577.676514,924.852844 580.980835,926.347351 
	C584.911133,928.124939 585.590637,933.088196 582.678162,935.922058 
	C579.184265,939.321838 565.975342,939.646362 563.567627,935.659851 
	C561.012268,931.428955 558.530396,931.967407 554.091980,934.072449 
	C556.393372,936.661499 557.983215,939.674255 560.474487,941.027588 
	C568.595154,945.438965 577.106506,945.228577 585.385193,941.203003 
	C589.713196,939.098511 591.476501,935.125977 591.497620,930.510498 
	C591.518433,925.932983 589.188843,922.447266 585.077148,920.636597 
	C581.455078,919.041626 577.548279,918.093140 572.987488,916.649170 
M618.673401,927.446655 
	C618.721619,928.936768 618.768921,930.426941 618.818176,931.916992 
	C619.095703,940.311035 622.290222,943.713379 630.687805,943.920105 
	C634.308838,944.009216 637.942932,943.195984 641.581482,943.046509 
	C645.776428,942.874268 646.679626,940.874451 645.270020,936.947876 
	C641.128784,937.246826 637.032104,937.736511 632.930969,937.778137 
	C629.553772,937.812500 626.316650,936.685913 626.218689,932.656250 
	C625.997620,923.567505 626.149170,914.469727 626.149170,904.757446 
	C632.265381,904.757446 637.977112,904.757446 643.944763,904.757446 
	C643.796265,902.526123 643.690674,900.938293 643.557251,898.933289 
	C637.639343,898.933289 632.049622,898.933289 625.978516,898.933289 
	C625.978516,894.755310 625.978516,891.010193 625.978516,887.255005 
	C624.038208,887.255005 622.600647,887.255005 621.113403,887.255005 
	C620.276855,891.189514 619.489807,894.891418 618.680847,898.696106 
	C616.332153,898.914612 614.247253,899.108521 612.120728,899.306396 
	C612.120728,901.182739 612.120728,902.770020 612.120728,904.504089 
	C614.414001,904.788818 616.466553,905.043640 618.804871,905.333923 
	C618.804871,912.601135 618.804871,919.533386 618.673401,927.446655 
M288.043091,935.822144 
	C289.194275,941.271423 293.094696,943.562927 298.127350,943.779114 
	C302.238861,943.955811 306.382172,943.187378 310.518402,943.050293 
	C314.671204,942.912659 315.666382,940.947815 314.316589,936.943176 
	C310.175476,937.243896 306.081390,937.737488 301.982605,937.780029 
	C298.354401,937.817810 295.211853,936.512146 295.145203,932.206848 
	C295.006866,923.272583 295.103424,914.334717 295.103424,904.780151 
	C301.248535,904.780151 306.967072,904.780151 312.939026,904.780151 
	C312.797028,902.544006 312.696106,900.954285 312.568420,898.943665 
	C306.652130,898.943665 301.060120,898.943665 294.983826,898.943665 
	C294.983826,894.762207 294.983826,891.015808 294.983826,887.253662 
	C293.036438,887.253662 291.600433,887.253662 290.113617,887.253662 
	C289.276947,891.188477 288.489410,894.892090 287.681671,898.690796 
	C285.328217,898.913086 283.242554,899.110046 281.124390,899.310120 
	C281.124390,901.191895 281.124390,902.778015 281.124390,904.508728 
	C283.421722,904.793213 285.474518,905.047363 287.931519,905.351562 
	C287.931519,915.434998 287.931519,925.190369 288.043091,935.822144 
M943.854797,939.338074 
	C944.702515,940.555969 945.526672,942.813843 946.401489,942.833557 
	C957.153442,943.076355 967.912720,942.991699 978.761963,942.991699 
	C978.761963,940.585083 978.761963,938.712891 978.761963,936.424255 
	C970.963562,936.424255 963.504272,936.280334 956.054810,936.487427 
	C952.540466,936.585144 951.465942,935.429138 951.621948,931.895874 
	C951.913635,925.291321 951.693054,918.664246 951.690613,912.046570 
	C951.687683,904.144104 951.690002,896.241638 951.690002,888.303223 
	C948.735168,888.303223 946.490540,888.303223 943.853882,888.303223 
	C943.853882,905.192993 943.853882,921.781616 943.854797,939.338074 
M924.079895,941.433472 
	C923.990723,939.866089 923.901550,938.298706 923.794739,936.420959 
	C915.651550,936.420959 908.021240,936.344055 900.393860,936.461731 
	C897.637817,936.504272 896.527893,935.570862 896.586243,932.728333 
	C896.725525,925.945496 896.638672,919.158020 896.640137,912.372375 
	C896.641907,904.340759 896.640564,896.309082 896.640564,888.368042 
	C893.568237,888.368042 891.341919,888.368042 889.261414,888.368042 
	C889.261414,906.750000 889.261414,924.760681 889.261414,943.001343 
	C894.141907,943.001343 898.619507,943.082947 903.093079,942.982544 
	C910.012573,942.827332 916.929382,942.547791 924.079895,941.433472 
M990.897766,804.998474 
	C990.100525,805.611755 988.634399,806.201233 988.611633,806.842041 
	C988.424561,812.101501 988.506104,817.370544 988.506104,822.646729 
	C994.462524,822.646729 999.846069,822.646729 1005.211975,822.646729 
	C1005.211975,816.604126 1005.211975,810.927124 1005.211975,804.994263 
	C1000.463989,804.994263 996.145081,804.994263 990.897766,804.998474 
z"/>
<path fill="#293C4F" opacity="1.000000" stroke="none" 
	d="
M513.938293,463.829132 
	C523.193237,443.822723 532.389954,423.789154 541.715637,403.815765 
	C558.914307,366.979980 576.188049,330.179291 593.438538,293.367737 
	C593.647400,292.921967 593.962646,292.526093 594.715088,291.338806 
	C613.371704,318.506470 631.807617,345.352753 650.525635,372.609863 
	C651.337158,371.437683 652.020020,370.451233 653.186035,369.233215 
	C654.018982,369.002747 654.368958,369.003876 654.718872,369.004974 
	C655.566467,370.002838 656.414062,371.000732 657.560242,372.350098 
	C673.338501,343.403442 688.951111,314.760681 704.758667,285.760315 
	C719.267822,294.266449 733.418579,302.586761 747.594055,310.864868 
	C757.784241,316.815735 767.954529,322.804810 778.250610,328.567780 
	C781.036438,330.127075 782.218750,331.804260 782.205750,335.153625 
	C782.067566,370.974335 782.139221,406.795868 782.070618,442.617004 
	C782.066589,444.709961 781.849976,447.069794 780.890686,448.852478 
	C770.811951,467.581604 760.562805,486.219025 750.351074,504.876526 
	C750.125488,505.288757 749.786682,505.639008 749.185852,506.435638 
	C718.606079,461.874420 688.147888,417.490387 657.538818,372.886505 
	C656.432068,374.695404 655.484131,376.244629 654.451660,377.932098 
	C653.269775,376.541565 652.131165,375.201904 650.584717,373.382446 
	C622.431580,425.033600 594.481812,476.311554 566.200745,527.780151 
	C565.869446,527.970825 565.982239,527.938416 565.982239,527.938416 
	C558.306763,518.840027 550.571350,509.791290 542.970825,500.630707 
	C533.331604,489.013062 523.801819,477.304657 514.099121,465.025177 
	C513.961670,464.219666 513.949951,464.024384 513.938293,463.829132 
z"/>
<path fill="#2A3D50" opacity="1.000000" stroke="none" 
	d="
M565.991699,528.358521 
	C565.982239,527.938416 565.869446,527.970825 565.843201,527.955322 
	C566.952698,529.510925 568.088501,531.082031 569.805420,533.457153 
	C598.044312,481.637848 626.024231,430.293823 654.365479,378.286743 
	C685.111389,423.098541 715.521851,467.421417 746.210266,512.149414 
	C747.414368,510.224060 748.398193,508.651001 749.439697,506.985535 
	C750.573914,508.453491 751.583374,509.760071 753.094177,511.715454 
	C762.540344,494.447052 771.810486,477.500580 781.782166,459.271545 
	C781.946106,462.135284 782.108337,463.658936 782.109375,465.182739 
	C782.125366,489.005341 781.972351,512.829651 782.245361,536.649170 
	C782.300110,541.426514 780.939636,544.173645 775.956604,545.377686 
	C768.530640,534.605591 761.013672,523.701477 753.224182,512.401978 
	C751.977661,514.264282 750.998962,515.726440 750.021912,517.596619 
	C750.023560,518.004639 750.195740,517.998962 750.195740,517.998962 
	C749.078918,516.398376 747.962097,514.797852 746.402588,512.562866 
	C744.010376,516.809692 741.757080,520.699341 739.606995,524.645264 
	C729.114624,543.901306 718.739014,563.221985 708.074768,582.382141 
	C706.554932,585.112671 704.057068,587.718384 701.376587,589.316101 
	C682.252686,600.715149 662.963745,611.837463 643.486084,623.188477 
	C619.058838,593.414673 594.724976,563.754700 570.107788,533.749390 
	C569.032898,535.332642 568.219727,536.530457 566.998291,537.848755 
	C566.590027,537.969238 566.417725,537.988098 566.417725,537.988098 
	C565.336792,536.991577 564.255859,535.995056 562.772583,534.627686 
	C550.289001,557.519714 537.851135,580.327881 525.106201,603.699158 
	C504.994293,591.982483 485.117889,580.403076 464.655334,568.482117 
	C479.924622,535.837341 495.115692,503.359894 510.618988,470.214844 
	C528.201599,491.620636 545.351746,512.499878 562.847717,533.800110 
	C564.132507,531.754272 565.066833,530.266418 565.991699,528.358521 
z"/>
<path fill="#293D50" opacity="1.000000" stroke="none" 
	d="
M589.956787,286.863007 
	C583.290894,301.312744 576.687805,315.791870 569.947388,330.206757 
	C549.904785,373.068878 529.808167,415.905762 509.424835,459.409576 
	C503.159302,451.896515 497.095093,444.717224 491.130432,437.456146 
	C468.533722,409.947906 446.053314,382.343323 423.294861,354.969757 
	C420.177063,351.219696 420.347076,347.311951 419.730652,343.067413 
	C418.394714,333.868134 422.201080,329.220856 430.241119,324.644806 
	C474.002686,299.737396 517.317444,274.044891 560.789429,248.628586 
	C561.768433,248.056229 562.789124,247.555328 564.218018,246.792862 
	C572.843079,259.415527 581.351624,271.867737 589.926636,284.968567 
	C589.980957,286.032440 589.968872,286.447723 589.956787,286.863007 
z"/>
<path fill="#2A3D50" opacity="1.000000" stroke="none" 
	d="
M513.606323,463.793640 
	C513.949951,464.024384 513.961670,464.219666 513.986572,464.708160 
	C512.840454,466.526642 511.681213,468.051971 510.051636,470.196198 
	C509.162811,468.705139 508.245422,467.166077 506.886475,464.886383 
	C490.829193,499.158081 475.374695,532.143188 459.703003,565.591858 
	C446.787537,558.014282 434.199158,550.687805 421.714142,543.189270 
	C420.734467,542.600891 419.957214,540.813599 419.955627,539.582336 
	C419.879578,480.308319 419.898865,421.034149 419.926788,361.760010 
	C419.926910,361.501923 420.204529,361.243927 420.627960,360.505798 
	C449.272858,395.425903 477.782166,430.180756 506.422516,465.095337 
	C507.511200,463.153076 508.398773,461.569611 509.496857,459.610535 
	C510.852448,461.098938 512.063416,462.428528 513.606323,463.793640 
z"/>
<path fill="#2A3D50" opacity="1.000000" stroke="none" 
	d="
M590.310303,286.735687 
	C589.968872,286.447723 589.980957,286.032440 589.997437,285.305603 
	C590.943054,283.851807 591.884277,282.709564 593.233398,281.277588 
	C593.641296,280.987854 594.094360,280.965179 594.094360,280.965210 
	C595.068176,282.053802 596.041992,283.142365 597.481567,284.751556 
	C605.166260,268.401855 612.597900,252.590515 620.214661,236.385330 
	C646.932617,251.988586 673.268127,267.368469 699.847229,282.890625 
	C684.402954,311.237244 669.247131,339.054443 653.807312,367.392883 
	C634.906494,339.846344 616.358887,312.814636 597.598572,285.472870 
	C596.433350,287.555939 595.546570,289.141205 594.921570,290.258545 
	C593.524902,289.061188 592.094360,287.834778 590.310303,286.735687 
z"/>
<path fill="#2A3D50" opacity="1.000000" stroke="none" 
	d="
M566.508057,538.376099 
	C566.417725,537.988098 566.590027,537.969238 566.675598,537.955505 
	C570.916382,543.242493 574.976257,548.621277 579.243286,553.830383 
	C598.001953,576.730652 616.822144,599.580383 635.611206,622.455811 
	C636.446411,623.472656 637.194702,624.560974 638.358276,626.117432 
	C630.233521,630.889099 622.309631,635.630615 614.302307,640.226807 
	C599.119690,648.941650 603.143921,649.179199 587.263794,640.007202 
	C568.281006,629.043091 549.404907,617.894409 530.044434,606.569397 
	C536.883179,593.995667 543.697998,581.541931 550.438782,569.048218 
	C555.871704,558.978516 561.215271,548.860596 566.508057,538.376099 
z"/>
<path fill="#2A3D50" opacity="1.000000" stroke="none" 
	d="
M207.077637,808.023193 
	C201.934906,794.517456 196.929062,781.376404 191.501495,767.128174 
	C191.501495,786.364075 191.501495,804.336121 191.501495,822.655762 
	C187.066025,822.655762 182.334183,822.655762 177.252609,822.655762 
	C177.252609,796.722046 177.252609,770.700928 177.252609,744.006165 
	C183.058319,744.006165 189.001404,743.810974 194.909805,744.176514 
	C196.044952,744.246704 197.477631,746.351318 198.039276,747.801514 
	C204.457993,764.374878 210.730103,781.005066 217.059708,797.613037 
	C217.452530,798.643738 217.999207,799.615845 218.493011,800.654541 
	C218.493011,781.860413 218.493011,763.248840 218.493011,744.316162 
	C222.995148,744.316162 227.729614,744.316162 232.795502,744.316162 
	C232.795502,770.345459 232.795502,796.396240 232.795502,822.998413 
	C226.817490,822.998413 220.865555,823.151855 214.934952,822.864746 
	C213.792587,822.809387 212.277695,821.232788 211.721619,820.002258 
	C210.014038,816.223511 208.688568,812.272095 207.077637,808.023193 
z"/>
<path fill="#2C3F52" opacity="1.000000" stroke="none" 
	d="
M688.527832,744.177124 
	C702.097107,749.183472 704.157837,765.202698 691.486755,773.859741 
	C687.522217,776.568420 683.314636,778.921509 678.535095,781.856995 
	C682.375854,787.386230 686.276611,793.001892 691.092896,799.935486 
	C693.600342,792.507568 695.630005,786.495056 697.803833,780.055298 
	C701.278809,780.511475 705.002380,781.000244 710.023682,781.659424 
	C706.957520,790.517273 704.063660,798.877258 700.979370,807.787476 
	C704.563660,811.541443 709.432129,812.576172 715.741638,810.843323 
	C715.741638,813.523804 715.494629,815.793823 715.790894,817.990540 
	C716.504517,823.282227 712.947693,824.262573 709.382324,823.500671 
	C703.506042,822.244934 697.837036,820.019226 691.003662,817.862427 
	C684.148621,822.841736 675.041138,825.193054 665.019043,823.589722 
	C656.616760,822.245544 649.834167,818.553955 646.865051,810.028564 
	C643.637146,800.759827 645.190552,792.194885 651.930786,785.029358 
	C654.960571,781.808350 658.813843,779.361938 662.223022,776.620667 
	C661.192688,772.160889 659.413208,767.444031 659.129150,762.638794 
	C658.430969,750.827454 664.967102,743.763367 676.781982,743.139282 
	C680.542114,742.940674 684.354370,743.728455 688.527832,744.177124 
M669.475647,789.997131 
	C668.496216,789.474609 667.271667,788.284302 666.577637,788.539124 
	C662.392578,790.075500 659.369141,796.909912 659.907959,802.976746 
	C660.358398,808.048340 663.462463,811.955688 668.237793,812.853027 
	C673.697449,813.879089 678.726196,812.849304 682.739197,808.967285 
	C678.380005,802.738647 674.132324,796.669312 669.475647,789.997131 
M673.111877,769.975281 
	C673.956177,770.404480 675.083130,771.415833 675.597595,771.165955 
	C678.399048,769.805664 681.260071,768.405212 683.701599,766.505798 
	C687.202454,763.782288 688.290527,760.009583 686.227173,755.917786 
	C684.267822,752.032288 680.521484,752.336304 677.082947,753.017578 
	C672.851074,753.856079 671.197693,757.211243 671.232605,761.080872 
	C671.257202,763.811218 672.289124,766.532593 673.111877,769.975281 
z"/>
<path fill="#2D4154" opacity="1.000000" stroke="none" 
	d="
M363.701935,760.451965 
	C367.172394,759.852600 370.292267,759.019531 373.396210,759.075195 
	C382.953156,759.246521 390.269012,764.830566 390.744659,774.284790 
	C391.550476,790.301086 390.966034,806.387390 390.966034,822.730591 
	C386.117615,822.730591 380.878937,822.730591 375.122955,822.730591 
	C375.122955,811.178833 375.142273,799.758850 375.108582,788.339111 
	C375.100739,785.679443 375.151978,782.983704 374.752502,780.369324 
	C374.121674,776.241150 372.618439,772.655151 367.756531,771.804749 
	C362.691467,770.918762 358.047821,771.927429 355.753632,776.643311 
	C353.784241,780.691467 352.298279,785.345703 352.084503,789.803223 
	C351.566986,800.595459 351.916382,811.429382 351.916382,822.628906 
	C346.470032,822.628906 341.232025,822.628906 335.618408,822.628906 
	C335.618408,794.050415 335.618408,765.332336 335.618408,736.299927 
	C340.887726,736.299927 346.115997,736.299927 351.664856,736.299927 
	C351.664856,747.643860 351.664856,758.908936 351.664856,769.837341 
	C355.587555,766.743103 359.465820,763.683960 363.701935,760.451965 
z"/>
<path fill="#2B3F52" opacity="1.000000" stroke="none" 
	d="
M856.346069,820.463623 
	C834.153625,830.680298 812.793213,819.543518 808.778137,795.835815 
	C807.014343,785.421753 807.027039,774.959045 810.058716,764.703674 
	C813.977295,751.447815 822.998047,744.209717 836.801086,743.100830 
	C851.846191,741.892334 861.880249,747.464783 867.952698,760.454651 
	C868.709229,762.072876 869.258240,763.788147 870.105530,765.981934 
	C864.704102,767.349121 859.622925,768.635193 854.375366,769.963440 
	C853.531616,768.086426 852.834106,766.430237 852.052063,764.814880 
	C849.724731,760.007385 846.376404,756.626587 840.573120,756.746460 
	C834.795837,756.865723 829.966919,759.554199 828.697937,764.931641 
	C826.859436,772.721741 826.055359,780.849915 825.751099,788.869568 
	C825.593811,793.016052 827.012817,797.412292 828.530701,801.385803 
	C830.564514,806.709534 834.604248,809.980347 840.652710,810.256836 
	C846.634460,810.530151 850.245667,807.162231 852.932129,802.416138 
	C853.983704,800.558594 854.706787,798.515076 855.779541,796.107239 
	C860.814758,797.011475 865.966797,797.936768 871.579041,798.944702 
	C868.788818,808.026245 864.702026,815.499939 856.346069,820.463623 
z"/>
<path fill="#2C3F52" opacity="1.000000" stroke="none" 
	d="
M926.065674,823.250000 
	C919.252380,823.024902 912.537476,823.839905 906.522461,822.155457 
	C891.314575,817.896667 886.674377,804.109009 887.440979,788.347839 
	C887.616638,784.737366 888.315002,781.051758 889.412109,777.604187 
	C893.833679,763.709045 907.758484,756.767822 924.525696,759.298523 
	C944.172546,762.263977 949.698975,777.113464 948.535034,794.473572 
	C947.396912,811.448547 940.685059,819.518433 926.065674,823.250000 
M906.499451,804.657227 
	C909.666992,810.865662 913.407532,813.286499 918.860291,812.657166 
	C925.665833,811.871765 929.210022,809.155762 930.099731,801.531921 
	C930.933838,794.384216 930.821838,786.959534 929.883362,779.820068 
	C929.009521,773.171814 924.656616,770.319153 918.433594,770.344360 
	C911.815002,770.371094 907.015259,773.260742 906.293762,779.761353 
	C905.411011,787.714844 906.171631,795.850647 906.499451,804.657227 
z"/>
<path fill="#2B3E51" opacity="1.000000" stroke="none" 
	d="
M432.715820,760.557373 
	C445.452820,757.622803 457.130585,758.040039 465.945618,768.719360 
	C471.844299,775.865479 473.144806,784.560547 473.069275,794.244141 
	C458.860870,794.244141 444.828430,794.244141 430.878571,794.244141 
	C429.424255,809.046936 440.270020,815.756226 450.332153,811.972473 
	C451.105743,811.681580 452.185364,811.524353 452.555634,810.943542 
	C457.685181,802.895630 465.061188,807.603088 471.671204,807.209351 
	C468.063385,818.746826 455.466705,825.215820 439.679749,823.885864 
	C424.861755,822.637573 415.437836,813.442017 413.199799,798.047607 
	C410.511017,779.552307 417.281647,766.343689 432.715820,760.557373 
M431.371490,783.912537 
	C439.878937,783.912537 448.386383,783.912537 456.940186,783.912537 
	C455.985718,774.377136 450.863617,769.132690 443.287689,769.367126 
	C435.642151,769.603699 431.199860,774.577881 431.371490,783.912537 
z"/>
<path fill="#2B3E51" opacity="1.000000" stroke="none" 
	d="
M296.519623,808.206055 
	C297.942169,807.298950 299.133606,806.172180 300.284821,806.211914 
	C304.394318,806.353760 308.490143,806.891846 313.116241,807.329712 
	C308.843170,817.354614 301.072205,821.815979 291.179230,823.562927 
	C276.610474,826.135559 263.447052,820.621765 257.758057,809.448853 
	C250.743210,795.671997 252.872971,775.577820 263.039215,766.617798 
	C272.930267,757.900391 284.814392,756.777283 296.783325,761.219421 
	C308.717621,765.648743 312.558289,776.121338 313.907349,787.772766 
	C314.133667,789.727234 313.939301,791.730408 313.939301,794.356750 
	C299.771637,794.356750 285.715729,794.356750 271.715942,794.356750 
	C271.199707,802.870789 274.314209,809.285400 279.811859,811.758484 
	C285.327057,814.239319 291.586304,813.008301 296.519623,808.206055 
M295.932587,775.829468 
	C291.430817,769.986023 286.652527,768.201538 280.467896,770.054138 
	C274.868744,771.731262 272.183716,775.799377 271.594788,783.734619 
	C280.331299,783.734619 289.051239,783.734619 298.484222,783.734619 
	C297.655823,781.149902 296.920502,778.855530 295.932587,775.829468 
z"/>
<path fill="#2A3D50" opacity="1.000000" stroke="none" 
	d="
M523.001831,779.060974 
	C518.072205,785.096252 517.070374,791.936096 517.024292,799.028809 
	C516.973755,806.815918 517.012817,814.603638 517.012817,822.694946 
	C511.498199,822.694946 506.279755,822.694946 501.123077,822.694946 
	C500.548553,801.874023 499.977112,781.165344 499.399811,760.243530 
	C503.101532,760.243530 508.190369,760.243530 513.607605,760.243530 
	C514.520996,764.281982 515.415588,768.237000 516.329407,772.277344 
	C524.523499,759.282104 532.610352,756.352905 549.194824,760.406799 
	C549.194824,764.642822 549.194824,768.928101 549.194824,773.601074 
	C540.072388,773.128784 530.486572,770.542908 523.001831,779.060974 
z"/>
<path fill="#2B3E51" opacity="1.000000" stroke="none" 
	d="
M593.987305,280.588409 
	C594.094360,280.965179 593.641296,280.987854 593.414551,280.994934 
	C592.613220,279.544922 592.279907,277.925415 591.425659,276.656586 
	C584.849304,266.888641 578.166626,257.192230 571.533142,247.462616 
	C570.801636,246.389740 570.172058,245.247345 569.246826,243.729752 
	C578.870483,238.101761 588.201050,232.479706 597.736084,227.228989 
	C599.359314,226.335098 602.151001,226.366531 603.894226,227.130753 
	C607.783386,228.835693 611.351257,231.273529 615.263123,233.536041 
	C608.287048,248.444504 601.479858,262.975769 594.701233,277.520325 
	C594.308899,278.362152 594.148499,279.312042 593.987305,280.588409 
z"/>
<path fill="#2B3E51" opacity="1.000000" stroke="none" 
	d="
M749.838745,518.186768 
	C750.195740,517.998962 750.023560,518.004639 749.981079,518.000427 
	C756.959290,528.036682 763.979980,538.077148 771.336304,548.597595 
	C753.007812,559.291809 734.942017,569.832764 716.876221,580.373718 
	C716.630493,580.143433 716.384827,579.913147 716.139099,579.682800 
	C727.253357,559.246765 738.367554,538.810730 749.838745,518.186768 
z"/>
<path fill="#485E70" opacity="1.000000" stroke="none" 
	d="
M169.596680,926.000427 
	C169.668182,913.151978 169.668182,900.802856 169.668182,887.552490 
	C177.313904,888.058472 184.619705,888.049133 191.755753,889.145020 
	C199.795609,890.379883 205.223801,895.405823 207.501678,903.337585 
	C210.096085,912.371582 210.053070,921.456299 206.370193,930.164856 
	C203.028641,938.066284 196.494461,942.183228 188.115067,942.843140 
	C182.175537,943.310913 176.169464,942.933716 169.525162,942.933716 
	C169.525162,937.318176 169.525162,931.908997 169.596680,926.000427 
M177.598633,925.488770 
	C177.598633,928.935059 177.598633,932.381409 177.598633,935.681396 
	C191.474564,938.271118 199.313751,933.216064 200.821503,920.941833 
	C201.284866,917.169861 201.311493,913.248169 200.856995,909.477173 
	C199.432297,897.656128 189.493530,891.731140 177.598160,895.651123 
	C177.598160,905.189941 177.598160,914.839905 177.598633,925.488770 
z"/>
<path fill="#485E70" opacity="1.000000" stroke="none" 
	d="
M725.419312,914.713257 
	C725.315918,924.254700 725.315918,933.364929 725.315918,942.739807 
	C722.767883,942.739807 720.835693,942.739807 718.511841,942.739807 
	C718.511841,928.396606 718.511841,914.019470 718.511841,899.208801 
	C719.917236,899.125610 721.499268,899.031982 723.433289,898.917542 
	C723.917725,900.240173 724.389404,901.528137 724.974487,903.125671 
	C731.403748,896.045837 737.003296,895.295105 741.497192,904.908508 
	C742.452332,903.500671 743.225098,902.062561 744.274353,900.867065 
	C748.641785,895.891113 756.551453,897.311768 758.926331,903.461060 
	C759.284302,904.387817 759.725891,905.372375 759.730225,906.331970 
	C759.784790,918.409119 759.766052,930.486511 759.766052,942.786438 
	C757.638977,942.786438 755.709045,942.786438 753.122742,942.786438 
	C753.122742,933.755493 753.191345,924.824402 753.084045,915.895508 
	C753.048401,912.930786 752.859375,909.896423 752.141296,907.044800 
	C751.829590,905.807190 750.068604,904.231812 748.847595,904.121765 
	C747.603455,904.009583 745.473816,905.222595 745.033691,906.359497 
	C743.924500,909.223938 743.058899,912.358093 742.970581,915.409485 
	C742.711487,924.363281 742.878296,933.329468 742.878296,942.649292 
	C740.493286,942.649292 738.454468,942.649292 735.839355,942.649292 
	C735.839355,933.822693 735.891357,925.053772 735.807800,916.286194 
	C735.782654,913.642578 735.729553,910.905212 735.028320,908.395447 
	C734.568359,906.749268 732.781372,904.148926 731.838501,904.252319 
	C730.138733,904.438904 728.076965,906.018677 727.176453,907.593933 
	C726.080139,909.511780 726.027039,912.025879 725.419312,914.713257 
z"/>
<path fill="#475D6F" opacity="1.000000" stroke="none" 
	d="
M446.249481,928.420837 
	C447.722870,929.213684 449.223419,929.842834 449.856018,930.962402 
	C454.074677,938.428345 467.816864,940.518616 473.898804,934.497986 
	C477.889801,930.547180 477.157745,923.611938 472.024261,920.957153 
	C468.533508,919.151855 464.539764,918.315735 460.765015,917.064026 
	C457.770111,916.070984 454.666290,915.333862 451.788055,914.077209 
	C446.554382,911.792236 444.040375,907.619690 443.967529,901.865540 
	C443.894806,896.117493 446.269806,891.715881 451.406952,889.354004 
	C459.031647,885.848389 467.192352,885.568054 474.574738,889.317566 
	C478.282623,891.200867 480.690765,895.643127 483.686707,898.928162 
	C483.362976,899.463867 483.039276,899.999512 482.715546,900.535217 
	C480.387177,901.021545 478.058807,901.507935 475.775818,901.984802 
	C471.596039,893.719360 465.709961,891.199402 457.493469,893.820374 
	C453.890717,894.969604 451.940948,897.204285 451.747192,901.021301 
	C451.551025,904.886230 453.396729,907.476746 456.877991,908.646484 
	C462.850006,910.653076 469.064209,911.997925 474.918243,914.282837 
	C483.319977,917.562073 486.751190,925.816956 482.954315,933.918945 
	C481.580597,936.850281 478.898376,939.865601 476.040405,941.272644 
	C467.723175,945.367065 458.861298,945.121277 450.406372,941.576965 
	C445.471588,939.508179 442.274261,935.428955 441.487549,929.594971 
	C443.047302,929.200012 444.461243,928.842041 446.249481,928.420837 
z"/>
<path fill="#475D6F" opacity="1.000000" stroke="none" 
	d="
M259.008911,927.889832 
	C259.045471,930.367676 258.560516,932.574646 259.261993,934.299011 
	C259.995789,936.102844 261.844391,937.466614 263.256042,938.975647 
	C264.028992,939.801880 264.905975,940.530701 265.736084,941.303406 
	C264.876282,942.145813 264.151581,943.463196 263.134491,943.752502 
	C257.144257,945.456360 253.569839,942.916077 251.412796,935.367188 
	C247.851715,940.928894 243.135391,944.071289 236.531952,944.035889 
	C229.024628,943.995667 224.540817,940.439941 223.314560,933.224609 
	C222.121597,926.205261 225.480103,919.883423 232.049667,917.837646 
	C235.475479,916.770813 239.185547,916.515503 242.793655,916.169189 
	C245.409271,915.918213 248.068344,916.120178 250.581573,916.120178 
	C252.073853,909.517700 250.569000,905.084534 246.155762,904.286438 
	C239.456467,903.075012 234.888565,903.327576 232.579147,910.935364 
	C230.374176,910.767334 228.100235,910.594055 225.348709,910.384460 
	C225.722580,908.785583 225.838364,907.515625 226.311081,906.396423 
	C229.054535,899.900940 237.498489,896.613525 246.990784,898.266602 
	C254.469788,899.569031 258.704041,904.279236 258.965668,911.937622 
	C259.141663,917.088562 259.005463,922.250061 259.008911,927.889832 
M242.896576,921.396973 
	C240.472885,921.874023 237.854385,921.923218 235.666946,922.919189 
	C231.423904,924.851074 230.340042,928.613098 231.325790,932.957520 
	C232.263336,937.089478 235.162323,938.098938 239.151230,938.229370 
	C246.325867,938.464050 254.053299,929.140930 250.719452,921.310974 
	C248.416214,921.310974 246.098312,921.310974 242.896576,921.396973 
z"/>
<path fill="#475D6F" opacity="1.000000" stroke="none" 
	d="
M368.141052,907.246338 
	C368.492554,915.273865 368.707916,922.901123 369.027069,930.524109 
	C369.187073,934.347168 368.060791,939.041687 374.396179,939.188416 
	C374.862793,939.199219 375.816833,940.845154 375.624420,941.426453 
	C375.320160,942.345642 374.372284,943.399353 373.461365,943.713501 
	C367.602936,945.733765 363.388336,942.857605 361.544098,935.059143 
	C357.907257,941.065125 352.995819,944.099854 346.341034,944.029907 
	C339.060577,943.953369 334.693146,940.502014 333.372894,933.514893 
	C332.043793,926.480896 335.280518,920.035217 341.792084,917.956116 
	C345.363892,916.815674 349.246552,916.548279 353.017303,916.165833 
	C355.619781,915.901855 358.270691,916.115112 360.797974,916.115112 
	C361.880432,909.229309 360.460297,905.655640 356.423798,904.264099 
	C350.233276,902.130005 345.537170,904.295471 342.304626,910.989746 
	C340.151642,910.787659 337.894226,910.575745 335.603577,910.360779 
	C336.881409,902.861816 340.723083,899.310791 348.298401,898.222412 
	C358.098755,896.814453 364.334473,899.536682 368.141052,907.246338 
M355.536682,921.148682 
	C352.738831,921.487549 349.859528,921.519104 347.161407,922.234314 
	C342.642029,923.432190 340.269653,927.718506 341.150574,932.320496 
	C342.006409,936.791321 344.657532,938.353943 349.991577,938.174255 
	C355.999115,937.971741 363.800018,930.081970 360.750488,921.143799 
	C359.381683,921.143799 357.903229,921.143799 355.536682,921.148682 
z"/>
<path fill="#485E70" opacity="1.000000" stroke="none" 
	d="
M693.316711,942.558716 
	C687.722168,942.804932 682.214966,943.917175 677.343994,942.627197 
	C673.626343,941.642639 669.532593,938.252686 667.677185,934.814941 
	C663.048096,926.238281 663.063477,916.888977 667.077454,907.914001 
	C670.462585,900.345032 677.979370,896.950745 687.536133,898.099426 
	C695.370789,899.041138 701.092773,903.977966 702.814087,911.699951 
	C703.562744,915.058350 703.701233,918.552734 704.204163,922.706970 
	C693.287659,922.706970 682.905457,922.706970 672.340942,922.706970 
	C672.585693,929.298096 673.797668,935.025879 679.834412,937.369568 
	C685.588318,939.603577 691.101990,938.574219 695.695190,933.570007 
	C696.743530,932.427673 699.837158,933.162720 702.835571,932.982971 
	C700.722839,938.428894 697.812927,941.029663 693.316711,942.558716 
M694.601562,910.173401 
	C691.274963,904.309631 686.617737,902.290527 680.510925,904.064392 
	C675.671631,905.470093 672.738953,910.240356 672.877319,916.743164 
	C680.457642,916.743164 688.045715,916.743164 696.159363,916.743164 
	C695.720764,914.645935 695.327759,912.766907 694.601562,910.173401 
z"/>
<path fill="#475D6F" opacity="1.000000" stroke="none" 
	d="
M1002.015930,919.658508 
	C1002.499756,922.550476 1002.808716,925.036133 1003.491455,927.414490 
	C1005.019104,932.735962 1008.010620,936.694946 1013.972839,937.364136 
	C1019.958313,938.035889 1024.247559,935.419495 1027.150513,930.291687 
	C1027.876953,929.008545 1028.572510,927.708008 1029.454590,926.101562 
	C1031.525024,926.949158 1033.466064,927.743713 1035.387085,928.530151 
	C1032.627930,937.981384 1025.685059,943.676697 1016.727234,944.002197 
	C1006.677063,944.367371 999.270386,939.539612 995.975647,930.125305 
	C992.687561,920.729797 992.843567,911.099487 995.455383,901.644409 
	C998.011658,892.389954 1004.414429,887.528320 1013.464661,887.023438 
	C1023.826416,886.445374 1029.960938,890.167480 1034.666504,900.316162 
	C1032.481445,901.213745 1030.316650,902.103027 1028.014282,903.048767 
	C1025.598755,897.716370 1022.356140,893.958313 1016.460632,893.601868 
	C1010.215759,893.224304 1005.465576,895.866394 1003.979919,901.972778 
	C1002.624023,907.546143 1002.613953,913.446960 1002.015930,919.658508 
z"/>
<path fill="#475D6F" opacity="1.000000" stroke="none" 
	d="
M529.341675,907.302917 
	C529.905457,906.037659 530.462585,905.152161 530.652344,904.193909 
	C531.736572,898.719055 535.264343,898.084961 540.351074,899.571106 
	C537.357056,906.619446 534.395386,913.623901 531.407654,920.617188 
	C527.363953,930.081848 523.560486,939.660767 519.172119,948.963379 
	C514.745911,958.346069 509.804199,960.883301 500.271027,959.474915 
	C500.135986,957.991882 499.991852,956.409302 499.792847,954.224426 
	C505.599518,954.660645 510.001465,952.785278 512.685974,947.589661 
	C514.472107,944.132874 514.795044,941.093323 513.019104,937.340820 
	C507.192474,925.028687 501.775726,912.522583 496.213745,900.085449 
	C496.158600,899.962097 496.270294,899.764038 496.304077,899.600891 
	C503.384979,898.209106 503.340942,898.227478 506.040100,904.700195 
	C510.066559,914.355835 514.162292,923.982483 518.532532,934.342224 
	C522.240479,925.033569 525.702820,916.341309 529.341675,907.302917 
z"/>
<path fill="#475D6F" opacity="1.000000" stroke="none" 
	d="
M803.345093,899.362000 
	C806.439270,901.837463 809.176880,904.141357 812.815857,907.203735 
	C808.069946,908.958618 805.692871,909.816650 803.191772,906.181274 
	C800.725525,902.596558 789.760010,902.690308 786.439026,905.675842 
	C783.904785,907.953979 783.948730,911.863464 786.781128,913.865295 
	C788.224304,914.885315 790.036987,915.455750 791.755676,915.998108 
	C795.703308,917.244202 799.773254,918.137085 803.652039,919.559082 
	C809.741760,921.791687 812.653564,925.704224 812.529846,930.813293 
	C812.389771,936.597778 809.166565,940.924255 802.974060,942.754089 
	C796.109741,944.782471 789.026062,945.083618 782.589600,941.636597 
	C779.695374,940.086548 777.678528,936.898132 774.974731,934.160767 
	C779.723083,931.753662 782.140015,931.884888 784.688721,935.785400 
	C787.271606,939.738037 800.402954,939.258240 803.772705,935.817688 
	C806.631714,932.898621 805.858093,928.095276 801.876831,926.292419 
	C798.727844,924.866272 795.265015,924.133423 791.942200,923.090820 
	C789.410461,922.296509 786.812988,921.663208 784.363037,920.667297 
	C780.146240,918.953186 777.599731,915.757446 777.572327,911.128479 
	C777.542664,906.093445 779.653320,902.055298 784.434387,899.944153 
	C790.482361,897.273560 796.722351,897.453430 803.345093,899.362000 
z"/>
<path fill="#475D6F" opacity="1.000000" stroke="none" 
	d="
M573.377380,916.754150 
	C577.548279,918.093140 581.455078,919.041626 585.077148,920.636597 
	C589.188843,922.447266 591.518433,925.932983 591.497620,930.510498 
	C591.476501,935.125977 589.713196,939.098511 585.385193,941.203003 
	C577.106506,945.228577 568.595154,945.438965 560.474487,941.027588 
	C557.983215,939.674255 556.393372,936.661499 554.091980,934.072449 
	C558.530396,931.967407 561.012268,931.428955 563.567627,935.659851 
	C565.975342,939.646362 579.184265,939.321838 582.678162,935.922058 
	C585.590637,933.088196 584.911133,928.124939 580.980835,926.347351 
	C577.676514,924.852844 574.024597,924.136963 570.547485,923.011475 
	C567.864319,922.143005 565.070251,921.457397 562.575745,920.195618 
	C555.423096,916.577881 554.421875,907.104797 560.483765,901.836304 
	C566.338989,896.747498 580.435181,896.524414 586.279907,901.649170 
	C588.012939,903.168823 589.157593,905.359558 591.042847,907.869995 
	C587.104553,908.706970 584.750610,909.971985 582.335510,906.364258 
	C579.772583,902.535767 568.454651,902.627502 565.214661,905.876404 
	C562.808411,908.289246 563.029297,912.200378 566.055359,914.021362 
	C568.138672,915.275146 570.661194,915.799072 573.377380,916.754150 
z"/>
<path fill="#475D6F" opacity="1.000000" stroke="none" 
	d="
M618.739136,926.956177 
	C618.804871,919.533386 618.804871,912.601135 618.804871,905.333923 
	C616.466553,905.043640 614.414001,904.788818 612.120728,904.504089 
	C612.120728,902.770020 612.120728,901.182739 612.120728,899.306396 
	C614.247253,899.108521 616.332153,898.914612 618.680847,898.696106 
	C619.489807,894.891418 620.276855,891.189514 621.113403,887.255005 
	C622.600647,887.255005 624.038208,887.255005 625.978516,887.255005 
	C625.978516,891.010193 625.978516,894.755310 625.978516,898.933289 
	C632.049622,898.933289 637.639343,898.933289 643.557251,898.933289 
	C643.690674,900.938293 643.796265,902.526123 643.944763,904.757446 
	C637.977112,904.757446 632.265381,904.757446 626.149170,904.757446 
	C626.149170,914.469727 625.997620,923.567505 626.218689,932.656250 
	C626.316650,936.685913 629.553772,937.812500 632.930969,937.778137 
	C637.032104,937.736511 641.128784,937.246826 645.270020,936.947876 
	C646.679626,940.874451 645.776428,942.874268 641.581482,943.046509 
	C637.942932,943.195984 634.308838,944.009216 630.687805,943.920105 
	C622.290222,943.713379 619.095703,940.311035 618.818176,931.916992 
	C618.768921,930.426941 618.721619,928.936768 618.739136,926.956177 
z"/>
<path fill="#475D6F" opacity="1.000000" stroke="none" 
	d="
M287.987305,935.383972 
	C287.931519,925.190369 287.931519,915.434998 287.931519,905.351562 
	C285.474518,905.047363 283.421722,904.793213 281.124390,904.508728 
	C281.124390,902.778015 281.124390,901.191895 281.124390,899.310120 
	C283.242554,899.110046 285.328217,898.913086 287.681671,898.690796 
	C288.489410,894.892090 289.276947,891.188477 290.113617,887.253662 
	C291.600433,887.253662 293.036438,887.253662 294.983826,887.253662 
	C294.983826,891.015808 294.983826,894.762207 294.983826,898.943665 
	C301.060120,898.943665 306.652130,898.943665 312.568420,898.943665 
	C312.696106,900.954285 312.797028,902.544006 312.939026,904.780151 
	C306.967072,904.780151 301.248535,904.780151 295.103424,904.780151 
	C295.103424,914.334717 295.006866,923.272583 295.145203,932.206848 
	C295.211853,936.512146 298.354401,937.817810 301.982605,937.780029 
	C306.081390,937.737488 310.175476,937.243896 314.316589,936.943176 
	C315.666382,940.947815 314.671204,942.912659 310.518402,943.050293 
	C306.382172,943.187378 302.238861,943.955811 298.127350,943.779114 
	C293.094696,943.562927 289.194275,941.271423 287.987305,935.383972 
z"/>
<path fill="#455B6D" opacity="1.000000" stroke="none" 
	d="
M943.854370,938.854126 
	C943.853882,921.781616 943.853882,905.192993 943.853882,888.303223 
	C946.490540,888.303223 948.735168,888.303223 951.690002,888.303223 
	C951.690002,896.241638 951.687683,904.144104 951.690613,912.046570 
	C951.693054,918.664246 951.913635,925.291321 951.621948,931.895874 
	C951.465942,935.429138 952.540466,936.585144 956.054810,936.487427 
	C963.504272,936.280334 970.963562,936.424255 978.761963,936.424255 
	C978.761963,938.712891 978.761963,940.585083 978.761963,942.991699 
	C967.912720,942.991699 957.153442,943.076355 946.401489,942.833557 
	C945.526672,942.813843 944.702515,940.555969 943.854370,938.854126 
z"/>
<path fill="#455B6D" opacity="1.000000" stroke="none" 
	d="
M923.963623,941.877197 
	C916.929382,942.547791 910.012573,942.827332 903.093079,942.982544 
	C898.619507,943.082947 894.141907,943.001343 889.261414,943.001343 
	C889.261414,924.760681 889.261414,906.750000 889.261414,888.368042 
	C891.341919,888.368042 893.568237,888.368042 896.640564,888.368042 
	C896.640564,896.309082 896.641907,904.340759 896.640137,912.372375 
	C896.638672,919.158020 896.725525,925.945496 896.586243,932.728333 
	C896.527893,935.570862 897.637817,936.504272 900.393860,936.461731 
	C908.021240,936.344055 915.651550,936.420959 923.794739,936.420959 
	C923.901550,938.298706 923.990723,939.866089 923.963623,941.877197 
z"/>
<path fill="#2B3E51" opacity="1.000000" stroke="none" 
	d="
M991.361938,804.996338 
	C996.145081,804.994263 1000.463989,804.994263 1005.211975,804.994263 
	C1005.211975,810.927124 1005.211975,816.604126 1005.211975,822.646729 
	C999.846069,822.646729 994.462524,822.646729 988.506104,822.646729 
	C988.506104,817.370544 988.424561,812.101501 988.611633,806.842041 
	C988.634399,806.201233 990.100525,805.611755 991.361938,804.996338 
z"/>
<path fill="#2A3D50" opacity="1.000000" stroke="none" 
	d="
M654.652283,368.734283 
	C654.368958,369.003876 654.018982,369.002747 653.406616,369.001343 
	C653.624695,368.821899 654.105164,368.642731 654.652283,368.734283 
z"/>
<path fill="#CCECF2" opacity="1.000000" stroke="none" 
	d="
M669.680176,790.298584 
	C674.132324,796.669312 678.380005,802.738647 682.739197,808.967285 
	C678.726196,812.849304 673.697449,813.879089 668.237793,812.853027 
	C663.462463,811.955688 660.358398,808.048340 659.907959,802.976746 
	C659.369141,796.909912 662.392578,790.075500 666.577637,788.539124 
	C667.271667,788.284302 668.496216,789.474609 669.680176,790.298584 
z"/>
<path fill="#CCECF2" opacity="1.000000" stroke="none" 
	d="
M672.991577,769.616577 
	C672.289124,766.532593 671.257202,763.811218 671.232605,761.080872 
	C671.197693,757.211243 672.851074,753.856079 677.082947,753.017578 
	C680.521484,752.336304 684.267822,752.032288 686.227173,755.917786 
	C688.290527,760.009583 687.202454,763.782288 683.701599,766.505798 
	C681.260071,768.405212 678.399048,769.805664 675.597595,771.165955 
	C675.083130,771.415833 673.956177,770.404480 672.991577,769.616577 
z"/>
<path fill="#CCECF2" opacity="1.000000" stroke="none" 
	d="
M906.360535,804.282471 
	C906.171631,795.850647 905.411011,787.714844 906.293762,779.761353 
	C907.015259,773.260742 911.815002,770.371094 918.433594,770.344360 
	C924.656616,770.319153 929.009521,773.171814 929.883362,779.820068 
	C930.821838,786.959534 930.933838,794.384216 930.099731,801.531921 
	C929.210022,809.155762 925.665833,811.871765 918.860291,812.657166 
	C913.407532,813.286499 909.666992,810.865662 906.360535,804.282471 
z"/>
<path fill="#CCECF2" opacity="1.000000" stroke="none" 
	d="
M431.001526,783.725586 
	C431.199860,774.577881 435.642151,769.603699 443.287689,769.367126 
	C450.863617,769.132690 455.985718,774.377136 456.940186,783.912537 
	C448.386383,783.912537 439.878937,783.912537 431.001526,783.725586 
z"/>
<path fill="#CCECF2" opacity="1.000000" stroke="none" 
	d="
M296.058868,776.195312 
	C296.920502,778.855530 297.655823,781.149902 298.484222,783.734619 
	C289.051239,783.734619 280.331299,783.734619 271.594788,783.734619 
	C272.183716,775.799377 274.868744,771.731262 280.467896,770.054138 
	C286.652527,768.201538 291.430817,769.986023 296.058868,776.195312 
z"/>
<path fill="#CFEFF5" opacity="1.000000" stroke="none" 
	d="
M177.598389,924.989380 
	C177.598160,914.839905 177.598160,905.189941 177.598160,895.651123 
	C189.493530,891.731140 199.432297,897.656128 200.856995,909.477173 
	C201.311493,913.248169 201.284866,917.169861 200.821503,920.941833 
	C199.313751,933.216064 191.474564,938.271118 177.598633,935.681396 
	C177.598633,932.381409 177.598633,928.935059 177.598389,924.989380 
z"/>
<path fill="#CCECF2" opacity="1.000000" stroke="none" 
	d="
M243.338486,921.354004 
	C246.098312,921.310974 248.416214,921.310974 250.719452,921.310974 
	C254.053299,929.140930 246.325867,938.464050 239.151230,938.229370 
	C235.162323,938.098938 232.263336,937.089478 231.325790,932.957520 
	C230.340042,928.613098 231.423904,924.851074 235.666946,922.919189 
	C237.854385,921.923218 240.472885,921.874023 243.338486,921.354004 
z"/>
<path fill="#CCECF2" opacity="1.000000" stroke="none" 
	d="
M355.980743,921.146240 
	C357.903229,921.143799 359.381683,921.143799 360.750488,921.143799 
	C363.800018,930.081970 355.999115,937.971741 349.991577,938.174255 
	C344.657532,938.353943 342.006409,936.791321 341.150574,932.320496 
	C340.269653,927.718506 342.642029,923.432190 347.161407,922.234314 
	C349.859528,921.519104 352.738831,921.487549 355.980743,921.146240 
z"/>
<path fill="#CCECF2" opacity="1.000000" stroke="none" 
	d="
M694.768188,910.530640 
	C695.327759,912.766907 695.720764,914.645935 696.159363,916.743164 
	C688.045715,916.743164 680.457642,916.743164 672.877319,916.743164 
	C672.738953,910.240356 675.671631,905.470093 680.510925,904.064392 
	C686.617737,902.290527 691.274963,904.309631 694.768188,910.530640 
z"/>
</svg>